<svg xmlns="http://www.w3.org/2000/svg" xml:space="preserve" fill-rule="evenodd" stroke-linejoin="round" stroke-miterlimit="2" clip-rule="evenodd" viewBox="0 0 512 512">
  <circle cx="-46.403" cy="-274.96" r="90" fill="#ffe6d5" transform="translate(382.795 1006.9) scale(2.7307)"/>
  <path fill="#83331b" fill-rule="nonzero" d="m87.6096 300.9945 44.174-51.8855 331.7218-1.1004-43.0545 52.9859H87.6096"/>
  <path fill="#f8a37b" fill-rule="nonzero" d="M87.6178 301.0027v139.4362c25.0511 1.1141 44.3815 10.7588 44.4116 22.1566H389.608c-2.037-2.9218-3.0884-6.0757-3.0884-9.2624.0028-11.9794 14.844-22.0938 33.9423-23.1288V301l-332.8441.0027Z"/>
  <path fill="#da845d" fill-rule="nonzero" d="M278.1448 324.5056c5.3576-2.8945 13.6288-11.589 8.5252-20.2834-.9449-1.6084-1.8678-2.6433-2.7526-3.2304h22.2413c-2.8945 6.3706-13.353 14.0766-13.353 14.0766s-.8546 1.6548-5.4913 5.3002c-2.6242 2.059-6.3925 3.3778-9.1696 4.137m-65.648-.3578c-2.7334-1.2697-6.7038-3.446-9.4973-6.4116-4.664-4.9507-5.6033-11.4442-5.6033-11.4442l-3.2987-5.3002h13.252c-.8848.587-1.805 1.622-2.7498 3.2304-4.907 8.3613 2.5531 16.7226 7.897 19.9256m60.8585-2.6241c-2.9082-.284-8.3012-1.0158-13.6943-2.8126-7.949-2.6488-12.5857-8.6098-12.5857-8.6098s-8.9429 5.464-20.865 7.635c-3.9813.7236-6.5755.9666-8.2685.9666h-.0792c-.2375-3.9977-1.0567-8.2712-1.0567-8.2712s-2.2583-7.2445-5.647-9.44h68.952c-3.3887 2.1955-5.6497 9.44-5.6497 9.44s-1.267 6.6219-1.1059 11.092"/>
  <path fill="#dee6e3" fill-rule="nonzero" d="M216.8058 310.4426s2.5204 13.1646 0 14.904c-2.5177 1.7395-18.9127-9.6884-12.2061-21.1135 6.7065-11.4252 12.206 6.2095 12.206 6.2095m57.6554 0s-2.5176 13.1646 0 14.904c2.5204 1.7395 18.9154-9.6884 12.2089-21.1135-6.7066-11.4252-12.2089 6.2095-12.2089 6.2095"/>
  <path fill="#d4541e" fill-rule="nonzero" d="M177.2465 200.0962c3.0502 14.5682-6.286 28.8523-20.854 31.9025-14.5682 3.0501-28.8496-6.286-31.8998-20.8542-3.0501-14.568 6.286-28.8522 20.8542-31.9024 14.568-3.0501 28.8495 6.286 31.8996 20.8541"/>
  <path fill="#852e1b" fill-rule="nonzero" d="M166.698 183.8488c-6.1386-4.4893-13.9073-6.1632-21.3511-4.604-14.5682 3.0502-23.9043 17.3343-20.8542 31.9025a26.8398 26.8398 0 0 0 3.5008 8.6753c11.8756-4.0387 29.8544-13.6725 38.7045-35.9738"/>
  <path fill="#fff" fill-rule="nonzero" d="M165.5538 202.5538c.243 1.0787.366 2.1819.366 3.2878 0 8.2302-6.7749 15.005-15.0051 15.005-7.1598 0-13.3694-5.1227-14.732-12.1487a14.9748 14.9748 0 0 1-.273-2.8563c0-8.2303 6.772-15.005 15.005-15.005 6.9932 0 13.1072 4.8906 14.6391 11.7172"/>
  <path fill="#e2591e" fill-rule="nonzero" d="M350.1061 195.0991h-.0027c-8.181 0-14.9122-6.731-14.9122-14.9122 0-6.3925 4.1124-12.1078 10.1745-14.1394 4.309-1.4882 25.2805-9.8304 19.0055-29.3956-4.533-14.145-13.1072-16.2038-38.4479-18.8936-4.6476-.4915-9.4508-1.0048-14.4425-1.7175-17.9323-2.5614-31.1187-9.978-39.1878-22.042-11.7747-17.5992-7.1598-37.5495-6.5946-39.764 1.6766-6.5837 7.654-11.2285 14.448-11.2285 8.1783 0 14.9094 6.731 14.9094 14.9094 0 1.2425-.1556 2.4795-.4614 3.6837.0054 0-2.0207 9.2597 2.5832 15.9608 3.1894 4.6448 9.4208 7.6568 18.5221 8.9593 4.4565.6362 8.9894 1.1168 13.3721 1.5838 23.5466 2.4985 52.8521 5.6142 63.6983 39.439 11.5453 36.0094-16.395 59.6788-37.989 66.8032-1.5074.497-3.0857.7536-4.675.7536"/>
  <path fill="#852e1b" fill-rule="nonzero" d="m297.1776 77.5438-.4424-.7155c-9.8304 6.2806-22.244 7.6213-29.1936 7.8316a45.0903 45.0903 0 0 0 4.7514 9.3225c2.6378 3.9458 5.8791 7.34 9.601 10.2837 13.0635-2.1654 23.582-11.9603 29.3738-18.6095-6.7038-1.5647-11.4524-4.2708-14.0902-8.1128m31.662 40.5231c10.6852 1.1824 18.1727 2.3539 23.544 4.6094 3.6836-6.1167 8.8255-16.2666 10.7315-27.7081-7.9108-3.1867-16.4277-4.7487-24.658-5.8054.7182 7.4165.213 20.2015-9.6174 28.9041m65.304 36.8914c1.6739-6.794 1.8377-14.3524-.0683-22.6045a30.1267 30.1267 0 0 1-11.4743 5.7617c-8.0664 2.0971-13.8336 1.9688-17.4981 1.39 1.5865 8.0472-1.5756 14.0028-5.871 18.2244 13.2493 5.7863 26.1954 1.7831 34.9117-2.7716"/>
  <path fill="#83bad2" fill-rule="nonzero" d="m365.1904 147.1212-.0246-.0109c.0328-.1747.0655-.3495.0928-.527l.0028-.0055.0764-.6499c.0847-.6854.142-1.3817.153-2.1026l.0027-.4369c-.0082-.9557-.0792-1.9115-.2185-2.859v.0027c-.1802-1.2288-.456-2.5013-.8793-3.8338.3031.9612.5462 1.8923.7237 2.799l-.0164-.0028c.5489 2.788.5297 5.3248.0874 7.6267m-.7974-10.4311-.0218-.06c-2.3375-7.2937-5.748-11.3733-11.9767-13.9839 6.2286 2.6106 9.6392 6.6902 11.9767 13.9838l.0218.06m-35.5478-18.6367c-.9476-.1065-1.9224-.2103-2.9219-.3168-4.6476-.4915-9.448-1.0049-14.4452-1.7176l-.3987-.06.4014.06c4.9917.7127 9.795 1.226 14.4453 1.7176.9967.1065 1.9715.2103 2.9218.3168m-17.8586-2.1081-.0655-.0082.0628.0082m-.2048-.03h-.0082.0082"/>
  <path fill="#ba4a1f" fill-rule="nonzero" d="M391.869 161.7303a111.9 111.9 0 0 0-5.0927-3.5799c2.627-.912 5.0545-2.0016 7.2254-3.1293l.101.071a44.8362 44.8362 0 0 1-2.2337 6.6382m-21.8126-21.8672c-1.9388 0-3.5826-.1529-4.937-.3659a26.8147 26.8147 0 0 0-.7237-2.799v-.0081c-.0109-.0191-.0163-.041-.0245-.06-2.3375-7.2937-5.748-11.3733-11.9767-13.9839 1.3489-2.2391 2.8945-5.0217 4.4018-8.2083 7.5093 3.0255 12.6293 7.7032 16.4277 15.2999 1.5456 3.0884 2.0671 6.4198 1.8978 9.8086a43.0108 43.0108 0 0 1-5.0654.3167m-41.2112-21.8098c-.9476-.1065-1.9224-.2103-2.9219-.3168-4.6476-.4915-9.448-1.0049-14.4425-1.7176l-.4014-.06a1.087 1.087 0 0 1-.0928-.0137l-.0628-.0082-.142-.0219h-.0082c-13.3202-2.0125-23.9453-6.7747-31.785-14.1394a48.8367 48.8367 0 0 0 2.9054 2.485c1.551-.2567 3.0666-.6226 4.5438-1.076 7.5149 2.4386 16.9875 4.492 28.5 5.1528 7.6323.437 14.3251.8902 20.2152 1.5183a27.3741 27.3741 0 0 1-6.3078 8.1975"/>
  <path fill="#6f2717" fill-rule="nonzero" d="M281.894 104.277a48.8367 48.8367 0 0 1-2.9054-2.4849 46.145 46.145 0 0 1-2.4112-2.4385 89.1285 89.1285 0 0 0 9.8604 3.8475c-1.4772.4533-2.9928.8192-4.5438 1.076m70.5005 18.3773c-5.3795-2.2528-12.8533-3.4106-23.5493-4.593a27.3741 27.3741 0 0 0 6.3078-8.1974c8.8883.9448 15.9526 2.2883 21.6433 4.582a93.63 93.63 0 0 1-4.4018 8.2084m34.3818 35.4988a104.4961 104.4961 0 0 0-21.586-11.0292c.4424-2.302.4643-4.8388-.0873-7.6268l.0164.0027c1.633.2513 3.285.3714 4.937.366 1.5074 0 3.195-.0929 5.0654-.3168a29.1555 29.1555 0 0 1-.598 4.511c6.8567 2.9656 13.3857 6.6383 19.4779 10.9637a54.755 54.755 0 0 1-7.2254 3.1294"/>
  <path fill="#e66733" fill-rule="nonzero" d="M388.1362 129.9726s-12.0914-16.9165-27.4269-25.3024c.6363-1.9524 1.207-3.9758 1.6849-6.0538 2.5313 1.1905 4.836 2.5531 6.7638 4.115 13.555 10.9746 18.9782 27.2412 18.9782 27.2412m-49.4989-34.33c-8.8692-3.203-15.1142-5.0926-15.1142-5.0926s6.6273.2484 15.1279 1.551a45.0263 45.0263 0 0 1-.0137 3.5417"/>
  <path fill="#94401d" fill-rule="nonzero" d="M360.7093 104.6593c-1.3052-.7127-2.6323-1.3653-3.9758-1.9388-5.9638-2.534-11.9986-4.896-18.0962-7.0888a43.9514 43.9514 0 0 0 .0137-3.5416c7.5448 1.155 16.5642 3.1402 23.7432 6.5153a71.221 71.221 0 0 1-1.6849 6.054"/>
  <path fill="#ef5d22" fill-rule="nonzero" d="M225.2708 177.377s39.5238-46.596 119.6717-35.3348c80.1478 11.2613 109.9558 115.917 109.9558 115.917l-34.4446 43.0544H225.2708V177.3771"/>
  <path fill="#852e1b" fill-rule="nonzero" d="M237.892 166.154c8.5142-2.332 22.0474-4.1943 42.9125-2.7607 50.6048 3.4761 116.302 84.6235 116.302 84.6235s-29.1308-92.5506-121.8398-100.8764c-16.6162 5.3275-29.0598 12.815-37.3747 19.0136"/>
  <path fill="#c74d1f" fill-rule="nonzero" d="M396.5248 287.9146h-11.4251c-3.1403-8.7791-18.9044-50.1788-44.1276-71.8658-20.7914-17.8695-50.9407-38.6827-88.501-40.6296a110.5984 110.5984 0 0 1 5.7098-.1475c27.0882 0 50.5201 9.986 69.6048 22.2386.0573-.3523.0928-.7045.1665-1.0595a26.6618 26.6618 0 0 1 4.5466-10.2619c15.1115 10.8763 29.2537 23.9316 40.4358 35.242a27.0046 27.0046 0 0 1-9.5492 5.8956c18.7952 22.4324 30.4825 53.1689 33.1394 60.588m-17.307-75.6559c-7.7469-11.8347-18.32-24.8682-32.2738-36.1813a32.5756 32.5756 0 0 1 1.2316-.3168l.456-.112c.71-.1529 1.4227-.2703 2.1463-.3659l.6199-.09c.6826-.0738 1.368-.1093 2.0589-.1311.2485-.0082.4942-.0328.7455-.0328h.0628c.669 0 1.3434.0437 2.0207.0928.2457.0164.4915.0164.74.041a27.3677 27.3677 0 0 1 2.8262.4342c14.5681 3.0501 23.9043 17.3315 20.8541 31.8997a27.0208 27.0208 0 0 1-1.3435 4.3854l-.0928.2485a1.7974 1.7974 0 0 1-.0519.1283"/>
  <path fill="#6f2717" fill-rule="nonzero" d="M372.9373 221.4228c-11.1848-11.3105-25.327-24.3658-40.4385-35.242a27.121 27.121 0 0 1 8.2821-7.4766l.0464-.0273a27.4554 27.4554 0 0 1 2.3402-1.2097l.1447-.0683c.7592-.3413 1.5347-.6444 2.3266-.9148l.2867-.1037c.3386-.1093.6772-.213 1.0185-.3113 13.9538 11.3131 24.527 24.3466 32.2766 36.1814a26.7529 26.7529 0 0 1-2.0153 3.913v.0027a26.9026 26.9026 0 0 1-4.2707 5.2566"/>
  <path fill="#d4541e" fill-rule="nonzero" d="M316.5244 196.4645c-3.0502 14.568 6.2887 28.8495 20.8541 31.8996 14.5681 3.0502 28.8523-6.286 31.9024-20.854 3.0502-14.5682-6.286-28.8496-20.8541-31.8998-14.5681-3.0501-28.8495 6.286-31.9024 20.8542"/>
  <path fill="#852e1b" fill-rule="nonzero" d="M327.073 180.217c6.1412-4.4893 13.91-6.1632 21.3538-4.604 14.5681 3.0502 23.9043 17.3316 20.8541 31.8997a26.8542 26.8542 0 0 1-3.5007 8.6781c-11.8784-4.0414-29.8572-13.6725-38.7073-35.9738"/>
  <path fill="#fff" fill-rule="nonzero" d="M328.2198 198.8947a15.0788 15.0788 0 0 0-.3167 3.072c0 8.2303 6.772 15.0024 15.0023 15.0024 7.0751 0 13.2355-5.0054 14.6855-11.9303a15.0788 15.0788 0 0 0 .3168-3.072c0-8.2303-6.772-15.0024-15.0023-15.0024-7.0752 0-13.2356 5.0054-14.6856 11.9303"/>
  <path fill="#f46a2f" fill-rule="nonzero" d="m121.7184 300.9945-13.2492-13.4895s42.2298-85.8769 100.352-105.7425c58.1251-19.8683 103.831 9.9397 132.1481 34.2809 28.317 24.3439 44.7093 73.526 44.7093 73.526l-10.4312 11.4251h-253.529"/>
  <path fill="#852e1b" fill-rule="nonzero" d="M188.5788 216.1799s47.6093-37.5112 56.9427-37.5112c9.3361 0 54.8264 32.9155 54.8264 32.9155l-7.5421 9.0576s-39.7258-32.241-47.2843-32.241c-7.5585 0-44.9441 32.241-44.9441 32.241l-11.9986-4.462"/>
  <path fill="#852e1b" fill-rule="nonzero" d="M212.169 230.5978s27.3505-23.186 35.1848-23.186c7.8343 0 33.863 20.2041 33.863 20.2041l-7.0915 13.8363s-20.6958-22.446-26.7715-22.446c-6.0758 0-29.4285 20.865-29.4285 20.865l-5.7562-9.2734"/>
  <path fill="#fff" fill-rule="nonzero" d="m108.4719 287.505 36.8367-12.3426s-11.7473-38.254 22.5308-56.6341c34.278-18.3802 49.4306.497 54.1492 11.425 4.7213 10.931 4.7213 39.745 4.7213 39.745h40.8344s-.4287-42.8906 17.124-55.1432c17.5528-12.2552 43.9502-13.91 54.2667 8.9403 10.3164 22.853 0 42.724 0 42.724l46.7463 23.35-10.4311 11.4251H121.721l-13.2492-13.4895"/>
  <path fill="#fddd04" fill-rule="nonzero" d="M216.8058 248.0195v.2103c0 8.902-7.3237 16.2283-16.2284 16.2283-8.902 0-16.2284-7.3264-16.2284-16.2283 0-.071.0027-.1393.0027-.2103.1147-8.8228 7.4029-16.0181 16.2257-16.0181 8.8255 0 16.1137 7.1953 16.2284 16.0181"/>
  <path fill="#391913" fill-rule="nonzero" d="M212.169 248.0195v.1775c0 6.3597-5.2319 11.5944-11.5943 11.5944-6.3598 0-11.5945-5.2347-11.5945-11.5944 0-.06.0028-.1202.0028-.1802.0983-6.2915 5.3002-11.4142 11.5917-11.4142 6.2942 0 11.4988 5.1227 11.5944 11.4169"/>
  <path fill="#fff" fill-rule="nonzero" d="M198.1416 240.8105c0 2.6242-2.1572 4.7814-4.7814 4.7814-2.6241 0-4.7814-2.1572-4.7814-4.7814 0-2.6241 2.1573-4.7814 4.7814-4.7814 2.6242 0 4.7814 2.1573 4.7814 4.7814"/>
  <path fill="#fddd04" fill-rule="nonzero" d="M309.0341 248.0195c0 8.9047-7.3263 16.2284-16.231 16.2284-8.902 0-16.2284-7.3237-16.2284-16.2284 0-8.9047 7.3264-16.2311 16.2283-16.2311 8.9048 0 16.2311 7.3264 16.2311 16.2311"/>
  <path fill="#391913" fill-rule="nonzero" d="M304.3975 248.0195v.1775c0 6.3597-5.232 11.5944-11.5945 11.5944-6.3597 0-11.5944-5.2347-11.5944-11.5944 0-.06.0027-.1202.0027-.1802.0983-6.2915 5.3003-11.4142 11.5917-11.4142 6.2942 0 11.4989 5.1227 11.5945 11.4169"/>
  <path fill="#fff" fill-rule="nonzero" d="M290.37 240.8105c0 2.6242-2.16 4.7814-4.7841 4.7814-2.6215 0-4.7814-2.1572-4.7814-4.7814 0-2.6241 2.16-4.7841 4.7814-4.7841 2.6242 0 4.7841 2.16 4.7841 4.7841"/>
  <path fill="#c74d1f" fill-rule="nonzero" d="M420.4537 300.9945h-33.7811l10.4338-11.4251s-.1966-.5844-.5816-1.6603h23.9289l31.501-38.7673c1.9743 5.4313 2.93 8.7545 2.9436 8.7982l-34.4446 43.0545"/>
  <path fill="#a33f1e" fill-rule="nonzero" d="M386.6726 300.9945h-11.4252l10.4312-11.4251s-.1912-.5844-.579-1.6603h11.4252c.385 1.076.5816 1.6603.5816 1.6603l-10.4311 11.4251"/>
  <path fill="#de581d" fill-rule="nonzero" d="m385.6786 289.5803-3.3232-1.6602h2.7443c.385 1.0758.5789 1.6602.5789 1.6602"/>
  <path fill="#d5d0cd" fill-rule="nonzero" d="M375.2474 300.9945h-253.529l-12.8506-13.0854h273.4766l3.3233 1.6603-10.4312 11.4251"/>
  <path fill="#fff" fill-rule="nonzero" d="M221.7537 265.5777s-15.5102 3.9922-21.1763 18.7188c-5.6661 14.7292 2.0343 25.4088 14.9504 28.3907 12.9188 2.9792 31.5474-6.7065 31.5474-6.7065s15.2973 14.904 33.7293 11.1766c18.432-3.7246 24.3958-24.8381 15.4528-37.5084-8.943-12.6676-30.802-14.0712-30.802-14.0712s-33.2568 9.5246-43.7016 0"/>
  <path fill="#a6b9b5" fill-rule="nonzero" d="M247.0752 305.9643s.77.7373 2.1108 1.8132V284.28c-.0518-.9667-.8628-1.734-1.8322-1.734s-1.7804.7673-1.8323 1.734v22.4379c.9721-.456 1.5537-.7537 1.5537-.7537"/>
  <g fill="#852e1b" fill-rule="nonzero">
    <path d="M267.2713 281.7433s11.9985-14.134 4.2434-20.2152c-7.7578-6.084-15.1142 4.3991-24.8518 3.4598-9.7376-.9394-19.9366-8.4514-24.0982-1.562-4.1588 6.8868 6.2888 15.188 6.2888 15.188s2.4794-7.2608 8.7272-3.7656c6.2505 3.4953.9858 10.8954.9858 10.8954s4.6012 3.0147 8.353 3.6345c3.752.6226 9.582-4.2298 9.582-4.2298s-3.0283-8.394 3.4024-11.6381c6.4335-3.2468 7.3674 8.233 7.3674 8.233m-119.0545-43.6088s-9.1942 11.944-8.4487 29.5786c.7455 17.6374 26.1052 33.2841 26.1052 33.2841l-9.9833-15.532c-2.4795-3.8585-1.6275-9.0276 1.9579-11.8866l15.4528-12.3235s-20.865 6.7065-24.3412 1.7394c-3.4788-4.9698-.7427-24.86-.7427-24.86m192.3675-10.5131s-1.4336 15.5075-5.2429 23.2052c-3.812 7.7005-16.9766 4.2244-16.9766 4.2244s14.6555 7.452 14.6555 12.1706c0 4.7213-9.9369 19.6226-9.9369 19.6226s32.2684-20.3326 17.5009-59.2228m-192.7006 73.3731s-6.458-4.8005-10.6005-11.5917c-4.1397-6.7884-5.464-10.9281-5.464-10.9281s-.497 8.943 1.9878 14.904c2.485 5.961 4.4702 7.6158 4.4702 7.6158h9.6065m197.3892 0s6.032-4.9425 11.2612-14.1585c5.2293-9.2133 7.1216-21.2747 7.1216-21.2747s2.4822 17.3835.8274 24.8355c-1.6575 7.452-4.3062 10.5977-4.3062 10.5977h-14.904m24.4477-151.989c-7.6705-3.2714-15.898-5.7154-24.7781-6.9633a177.7371 177.7371 0 0 0-21.1327-1.7149c13.2028 3.1403 40.5259 11.6436 62.2402 31.624 29.767 27.3858 41.3587 52.4834 41.3587 52.4834s-17.905-49.4197-57.6881-75.4293"/>
    <path d="M388.1362 182.3742s19.4014 15.2535 30.9931 45.25c11.5917 29.9963 11.2613 37.948 11.2613 37.948l-49.3487-61.937 32.7899 30.1384s-1.3271-17.5937-25.6956-51.3994"/>
  </g>
  <path fill="#f6854f" fill-rule="nonzero" d="m463.5109 248.0195-43.0545 52.9832v122.73c3.2358-4.3036 7.1189-6.6165 11.1002-6.6165 3.7929 0 7.4984 2.0972 10.6441 6.0266l21.3102-38.6745V248.0195Z"/>
  <path fill="#852e1b" fill-rule="nonzero" d="M373.7565 350.365h19.2075v-16.302h8.7054l-18.3092-20.8242-18.309 20.8241h8.7053v16.3021m9.6037 4.9425h-18.309v6.3051h36.6182v-6.305h-18.3092"/>
  <path fill="#f06c34" fill-rule="nonzero" d="M371.0886 160.3377c-9.0658-3.315-21.6624-6.7147-35.7445-7.0451-1.8186-.0437-3.659-.0628-5.505-.0628-7.4711 0-15.1142.3276-22.2468.7973a130.034 130.034 0 0 0-11.6053-3.4434c8.8856-2.0452 19.8656-3.752 31.7495-3.752 3.143 0 6.3433.1202 9.5874.3824 4.2298.3386 8.4323.9366 12.5884 1.7968 6.7993 2.9382 14.0465 6.6546 21.1763 11.3268"/>
  <path fill="#94401d" fill-rule="nonzero" d="M274.1253 157.4432s8.6043-3.8011 21.8617-6.8485a130.034 130.034 0 0 1 11.6053 3.4433c-18.432 1.2206-33.467 3.4052-33.467 3.4052m111.5533 9.4208s-5.5378-3.2222-14.59-6.5318c-7.127-4.6722-14.3797-8.3886-21.1763-11.3268 24.8928 5.1855 35.7663 17.8586 35.7663 17.8586"/>
  <path fill="#e66001" d="M256.0837.0747C115.6454.0747.0834 115.6367.0834 256.075c0 140.4383 115.562 256.0003 256.0003 256.0003 140.4384 0 256.0003-115.562 256.0003-256.0003C512.084 115.6366 396.522.0747 256.0837.0747Zm0 51.2c112.3507 0 204.8003 92.4496 204.8003 204.8003 0 112.3507-92.4496 204.8002-204.8003 204.8002-112.3507 0-204.8002-92.4495-204.8002-204.8002 0-112.3507 92.4495-204.8003 204.8002-204.8003Z"/>
  <path fill="#fff" fill-rule="nonzero" d="M297.1776 77.5438c-4.604-6.701-2.5778-15.9608-2.5832-15.9608a14.9634 14.9634 0 0 0 .4614-3.6837c0-8.1783-6.731-14.9094-14.9094-14.9094-6.794 0-12.7714 4.6448-14.448 11.2285-.5461 2.1326-4.7978 20.693 5.3849 37.776 7.938-1.4881 19.5598-4.8578 27.8637-12.3808-.6553-.6526-1.2643-1.3325-1.7694-2.0698"/>
</svg>
