<svg xmlns="http://www.w3.org/2000/svg" xml:space="preserve" fill-rule="evenodd" stroke-linejoin="round" stroke-miterlimit="2" clip-rule="evenodd" viewBox="0 0 512 512">
  <path fill="none" d="M0 0h512v512H0z"/>
  <path fill="#24292e" fill-rule="nonzero" d="m87.651 87.9715 3.761 357.2745c-30.0865 3.761-52.651-11.2825-52.651-41.3685L35 106.775c0-94.0195 86.498-116.584 139.149-78.9765L441.165 181.991c37.608 26.3255 45.1295 75.2155 26.3255 109.0625-3.7605-26.3255-15.043-41.3685-37.608-56.4115L129.0195 65.4065C106.455 50.3635 87.651 54.124 87.651 87.9715Z"/>
  <path fill="#24292e" fill-rule="nonzero" d="M65.0865 464.0505c22.5645 7.5215 45.1295 3.7605 63.9335-7.5215l308.3845-180.518c18.804 26.3255 15.0435 52.651-7.5215 67.694L170.3885 494.1365c-37.608 18.8035-86.4985 0-105.302-30.086Z"/>
  <path fill="#ffc230" fill-rule="nonzero" d="m155.345 358.748 184.2785-105.302L159.106 151.9045l-3.761 206.8435Z"/>
</svg>
