<svg xmlns="http://www.w3.org/2000/svg" xml:space="preserve" fill-rule="evenodd" stroke-miterlimit="1" clip-rule="evenodd" viewBox="0 0 512 513">
  <path fill="#eee" d="M511.9993 256.2359c0 70.4867-24.8865 130.8941-74.6617 181.2199-1.6539 1.968-3.5039 3.7803-5.5523 5.4342-8.1892 8.0332-16.8533 15.3198-25.9899 21.855-43.1596 31.8187-93.0128 47.7268-149.5595 47.7268-56.627 0-106.4-15.9081-149.3233-47.7267-11.341-8.0333-21.9732-17.1297-31.8966-27.2893C36.3456 399.0239 12.6003 354.3663 3.7803 303.49 2.0485 293.5667.905 283.4851.3544 273.2474A408.5864 408.5864 0 0 1 0 256.236c0-5.9847.1181-11.6954.3544-17.1296 0-.5506.156-1.1034.4725-1.654 3.7024-62.848 28.4305-117.1502 74.1891-162.9088C125.3418 24.8486 185.7492 0 256.236 0c70.723 0 131.0926 24.8486 181.1017 74.5435 49.7752 50.64 74.6617 111.2057 74.6617 181.6924Z"/>
  <path fill="#3a3f51" d="m459.9015 100.4152-52.9247 52.9247c-30.9468 30.9468-33.6686 57.8864-33.6686 105.3768 0 42.3729 6.7384 81.1639 38.2759 112.7013 23.027 23.027 44.8915 44.7734 44.8915 44.7734-5.9068 7.2464-12.2861 14.3345-19.138 21.2644-1.6539 1.968-3.5039 3.7803-5.5523 5.4342-5.9848 5.9068-12.2082 11.3812-18.6655 16.4208l-41.4655-41.4655c-36.8536-36.8583-66.1464-40.4024-114.8277-40.4024-46.7108 0-78.4963 4.3049-112.7013 38.5122-20.4303 20.4303-43.8283 43.9464-43.8283 43.9464-8.9003-6.7739-17.3257-14.2566-25.281-22.4457-6.6155-6.6156-12.7988-13.3895-18.5472-20.3193 0 0 23.1498-23.268 45.2459-45.364 32.7282-32.7307 38.0396-70.683 38.0396-113.0558 0-41.3474-6.7904-79.9139-36.8583-109.9841-20.8745-20.877-49.735-49.617-49.735-49.617 6.6935-8.5056 13.98-16.6971 21.855-24.572 6.9322-6.7739 14.0204-13.113 21.2644-19.0198l48.0812 48.0811c30.72 30.72 70.0945 38.6303 112.465 38.6303 43.6321 0 82.8768-8.4514 114.8277-40.4023 19.6577-19.6577 45.6003-45.4822 45.6003-45.4822 6.8518 5.5926 13.5454 11.6553 20.083 18.1929 8.1915 8.3475 15.712 16.9713 22.5639 25.8717Z"/>
  <path fill="#0cf" d="M185.9453 269.349c-.4726-2.7573-.7844-5.5524-.9451-8.3877-.0756-1.576-.1181-3.1495-.1181-4.7254 0-1.6539.0425-3.2298.118-4.7254 0-.1583.0426-.3143.1182-.4726 1.0278-17.406 7.8773-32.447 20.5556-45.1277 13.94-13.7817 30.6774-20.6737 50.2076-20.6737 19.6105 0 36.348 6.892 50.2076 20.6737 13.784 14.0203 20.6737 30.7932 20.6737 50.3257s-6.8897 36.2676-20.6737 50.2076a14.068 14.068 0 0 1-1.5358 1.5357c-2.2824 2.2045-4.6829 4.2128-7.2062 6.025-11.9672 8.82-25.7914 13.2311-41.4656 13.2311-15.6742 0-29.4535-4.4088-41.3474-13.2311-3.1472-2.2068-6.1005-4.7255-8.8602-7.5607-10.7078-10.6322-17.2856-22.9986-19.7286-37.0946Z"/>
  <path fill="none" stroke="#0cf" stroke-width="4.7254" d="m372.8356 141.172-35.4406 34.6136M72.736 76.8496l96.5522 96.219m199.8852 199.0582 65.7023 67.9988m4.3828-363.6069-66.4229 64.6532M76.4336 438.8734l64.6202-64.7383"/>
  <path fill="none" stroke="#0cf" stroke-width="16.5389" d="m372.8356 141.172-40.0479 40.6385M139.329 143.1897l40.6386 40.5205m-39.0957 190.614 39.5754-41.1112m146.3179-3.2984 42.5949 42.3989"/>
</svg>
